<?xml version="1.0" encoding="UTF-8"?>
<svg version="1.1" xmlns="http://www.w3.org/2000/svg" width="1024" height="1024">
<path d="M0 0 C6.44058509 -0.09424125 12.87425911 -0.06162878 19.31445312 0.04589844 C20.63654785 0.06475098 20.63654785 0.06475098 21.98535156 0.08398438 C75.9584996 1.05308817 128.55795355 13.8610124 177.9921875 35.09619141 C179.93460166 35.89055548 181.92593158 36.56387366 183.92382812 37.20605469 C186.31445312 38.04589844 186.31445312 38.04589844 187.31445312 40.04589844 C189.30428125 40.74233828 191.30740069 41.40077444 193.31445312 42.04589844 C229.78494423 57.40511533 263.06950242 83.63638039 292.14257812 110.09667969 C294.06018328 111.81769583 296.01505905 113.46877125 298.00195312 115.10839844 C301.15038308 117.77979356 303.76236028 120.76708959 306.43164062 123.90917969 C308.47084545 126.22338101 310.61688771 128.38185521 312.81445312 130.54589844 C316.86179387 134.55928498 320.65849266 138.67403697 324.31445312 143.04589844 C324.76272461 143.58037598 325.21099609 144.11485352 325.67285156 144.66552734 C334.39400953 155.10551547 342.51848367 165.90033973 350.31445312 177.04589844 C350.74822266 177.66223145 351.18199219 178.27856445 351.62890625 178.91357422 C364.8491565 197.80638034 375.88510747 218.02855677 385.31445312 239.04589844 C385.76385254 240.0371875 386.21325195 241.02847656 386.67626953 242.04980469 C392.69740458 255.4291555 397.85387298 269.01503734 402.50195312 282.92089844 C402.74655273 283.64911804 402.99115234 284.37733765 403.24316406 285.12762451 C403.93535716 287.1993317 404.61743378 289.27402877 405.29492188 291.35058594 C405.68574951 292.5466748 406.07657715 293.74276367 406.47924805 294.97509766 C407.31445312 298.04589844 407.31445312 298.04589844 407.31445312 302.04589844 C407.97445312 302.37589844 408.63445313 302.70589844 409.31445312 303.04589844 C409.84619141 304.86962891 409.84619141 304.86962891 410.25976562 307.28808594 C410.98788972 311.2948975 411.78947054 315.26744378 412.68164062 319.24121094 C416.66951882 337.42035328 419.41509602 355.52781094 421.31445312 374.04589844 C421.41902832 375.02002686 421.52360352 375.99415527 421.63134766 376.99780273 C422.7084053 388.57858087 422.55836486 400.2382769 422.56445312 411.85839844 C422.56512787 413.01484863 422.56580261 414.17129883 422.5664978 415.36279297 C422.52712614 457.93423604 416.43315002 499.2375368 403.49853516 539.87719727 C403.07096924 541.22527466 403.07096924 541.22527466 402.63476562 542.60058594 C402.37969238 543.38933105 402.12461914 544.17807617 401.86181641 544.99072266 C401.18577184 547.17458626 401.18577184 547.17458626 401.31445312 550.04589844 C400.65445313 550.04589844 399.99445312 550.04589844 399.31445312 550.04589844 C399.13922119 550.65973389 398.96398926 551.27356934 398.78344727 551.90600586 C388.99331786 585.45889622 371.11389384 616.49575805 351.31445312 645.04589844 C350.8384668 645.73570801 350.36248047 646.42551758 349.87207031 647.13623047 C344.37361869 655.07688776 338.50998532 662.63319089 332.31445312 670.04589844 C330.85577265 671.85811907 329.39744312 673.67062224 327.93945312 675.48339844 C323.45870599 680.95300011 318.73162619 686.17104602 313.90673828 691.3359375 C312.16324835 693.2082778 310.43221573 695.09173584 308.70117188 696.97558594 C298.67479252 707.8407229 288.35453638 717.84488089 276.68945312 726.97558594 C274.19854409 729.01999479 274.19854409 729.01999479 272.12695312 731.80371094 C271.52882813 732.54363281 270.93070313 733.28355469 270.31445312 734.04589844 C269.65445313 734.04589844 268.99445312 734.04589844 268.31445312 734.04589844 C266.12487364 735.73604672 263.99924636 737.46194945 261.87695312 739.23339844 C248.22780218 750.3779494 233.3883455 759.95161402 218.31445312 769.04589844 C217.5988623 769.48111816 216.88327148 769.91633789 216.14599609 770.36474609 C142.21545387 815.1159935 54.6064402 830.80043019 -70.9209137 817.07971191 C-76.27433612 816.10093178 -81.64191766 815.26242598 -87.02685547 814.4777832 C-90.70189821 813.88079968 -94.11852623 812.93747631 -97.63476562 811.72949219 C-104.65089573 809.36400486 -111.74547533 807.25067681 -118.828125 805.09472656 C-122.11725293 804.08879999 -125.40240227 803.07117829 -128.68554688 802.04589844 C-129.82813965 801.69124512 -130.97073242 801.3365918 -132.14794922 800.97119141 C-133.23672363 800.62330566 -134.32549805 800.27541992 -135.44726562 799.91699219 C-136.43041748 799.60560303 -137.41356934 799.29421387 -138.42651367 798.97338867 C-140.68554688 798.04589844 -140.68554688 798.04589844 -141.68554688 796.04589844 C-142.925625 795.80097656 -144.16570312 795.55605469 -145.44335938 795.30371094 C-151.98424727 793.97999065 -157.63792575 790.90296585 -163.56054688 787.92089844 C-165.78451131 786.80891622 -168.01096233 785.70188899 -170.24023438 784.60058594 C-171.70178955 783.86557861 -171.70178955 783.86557861 -173.19287109 783.11572266 C-175.69292435 781.84869984 -175.69292435 781.84869984 -178.68554688 782.04589844 C-178.68554688 781.38589844 -178.68554688 780.72589844 -178.68554688 780.04589844 C-179.32234375 779.81644531 -179.95914063 779.58699219 -180.61523438 779.35058594 C-204.51652611 769.19405739 -226.36032457 753.16812554 -246.40820312 736.88964844 C-247.94538518 735.64513741 -249.49531263 734.41622886 -251.05664062 733.20214844 C-257.73060619 727.99111612 -263.89511171 722.32586278 -270.07177734 716.54638672 C-273.42843814 713.42535234 -276.84281095 710.36763156 -280.24804688 707.29980469 C-287.50407969 700.59029998 -287.50407969 700.59029998 -288.68554688 697.04589844 C-289.34554687 697.04589844 -290.00554687 697.04589844 -290.68554688 697.04589844 C-292.09570313 695.64746094 -292.09570313 695.64746094 -293.74804688 693.67089844 C-296.41621 690.52411636 -299.13862936 687.45382156 -301.93554688 684.42089844 C-307.03498541 678.76736132 -311.69383781 672.80873774 -316.33886719 666.78222656 C-317.58384928 665.17702123 -318.84870152 663.58728007 -320.11523438 661.99902344 C-330.15552061 649.29230052 -339.02103868 635.62998919 -347.45117188 621.81152344 C-348.57793452 619.90103565 -348.57793452 619.90103565 -350.68554688 619.04589844 C-350.82992187 618.30339844 -350.97429687 617.56089844 -351.12304688 616.79589844 C-351.75522596 613.70524512 -353.032489 611.70516546 -354.68554688 609.04589844 C-354.68554688 608.38589844 -354.68554688 607.72589844 -354.68554688 607.04589844 C-356.00554687 607.37589844 -357.32554687 607.70589844 -358.68554688 608.04589844 C-358.02554688 607.05589844 -357.36554688 606.06589844 -356.68554688 605.04589844 C-357.1934375 604.03011719 -357.70132813 603.01433594 -358.22460938 601.96777344 C-362.34960937 593.71777344 -362.34960937 593.71777344 -363.45947266 591.49047852 C-364.34056826 589.73372617 -365.23064602 587.98146813 -366.12646484 586.23217773 C-407.41215636 505.09240146 -412.10476191 408.20064275 -383.83129883 283.671875 C-368.6865717 237.23826831 -346.06551703 194.29869505 -315.68554688 156.04589844 C-314.48478516 154.52416016 -314.48478516 154.52416016 -313.25976562 152.97167969 C-308.48350545 147.02468434 -303.41625064 141.3929424 -298.22851562 135.80761719 C-296.22383614 133.63049215 -294.28429488 131.42877076 -292.37304688 129.17089844 C-284.54170512 120.14783076 -275.81391462 111.74205676 -266.68554688 104.04589844 C-264.1174951 101.84397747 -261.5578322 99.63241783 -258.99804688 97.42089844 C-258.35552979 96.86974365 -257.7130127 96.31858887 -257.05102539 95.75073242 C-254.24069179 93.32709839 -251.53941973 90.89853118 -248.92382812 88.26074219 C-246.69067861 86.05097643 -244.46507034 84.72207107 -241.71679688 83.23730469 C-239.3687756 81.8600999 -237.24360634 80.29783041 -235.06054688 78.67089844 C-220.24784845 67.77443398 -204.76913902 57.94880081 -188.68554688 49.04589844 C-187.66074219 48.47766357 -187.66074219 48.47766357 -186.61523438 47.89794922 C-163.29981989 35.04589844 -163.29981989 35.04589844 -158.68554688 35.04589844 C-158.35554687 34.38589844 -158.02554688 33.72589844 -157.68554688 33.04589844 C-155.94873047 32.32397461 -155.94873047 32.32397461 -153.70898438 31.65136719 C-150.47372314 30.63309517 -147.31121789 29.5445062 -144.16210938 28.28417969 C-125.33687531 20.78680189 -106.03661862 15.14860221 -86.31054688 10.54589844 C-85.21718018 10.29050293 -84.12381348 10.03510742 -82.99731445 9.77197266 C-78.45509758 8.74901236 -74.36086055 7.90724613 -69.68554688 8.04589844 C-69.35554688 7.38589844 -69.02554687 6.72589844 -68.68554688 6.04589844 C-66.73754883 5.70214844 -66.73754883 5.70214844 -64.11132812 5.54589844 C-59.4375211 5.20231372 -54.81373288 4.7125607 -50.16601562 4.10839844 C-33.42356183 1.95077202 -16.89501326 0.28875114 0 0 Z M-202.22119141 366.33691406 C-213.99386516 380.07627989 -218.09458358 398.36519482 -217.68554688 416.04589844 C-216.24819673 434.03879966 -208.50198779 449.21462933 -195.53320312 461.65527344 C-180.65477097 474.14580907 -161.79707737 477.94602315 -142.68554688 477.04589844 C-142.02554688 476.71589844 -141.36554688 476.38589844 -140.68554688 476.04589844 C-139.73679687 476.21089844 -138.78804688 476.37589844 -137.81054688 476.54589844 C-134.80268483 477.02715636 -133.51648485 476.80081523 -130.68554688 476.04589844 C-129.35221354 476.37923177 -128.01888021 476.7125651 -126.68554688 477.04589844 C-126.06808594 476.8821875 -125.450625 476.71847656 -124.81445312 476.54980469 C-122.49975902 476.00192296 -120.96252762 476.12919668 -118.62304688 476.48339844 C-109.68674961 477.66476292 -109.68674961 477.66476292 -100.86523438 476.51074219 C-97.45027337 475.78246197 -94.07633803 476.22023998 -90.62304688 476.48339844 C-79.64023046 477.71150362 -79.64023046 477.71150362 -68.85839844 476.51074219 C-66.29782235 475.96295153 -64.32208883 476.17088274 -61.72070312 476.47558594 C-53.43708622 477.25827008 -45.16787818 477.19578809 -36.85522461 477.17626953 C-34.09743915 477.1708481 -31.33981216 477.17627578 -28.58203125 477.18261719 C-26.82356735 477.1819574 -25.06510355 477.1806783 -23.30664062 477.17871094 C-22.48481796 477.18073517 -21.6629953 477.1827594 -20.81626892 477.18484497 C-17.51790677 477.17119835 -14.83662951 477.09625931 -11.68554688 476.04589844 C-10.01746546 476.37207826 -8.35108586 476.70697546 -6.68554688 477.04589844 C-4.05505136 477.13821793 -1.45174694 477.18263221 1.17822266 477.17529297 C2.34251801 477.17792145 2.34251801 477.17792145 3.53033447 477.18060303 C6.08600119 477.18499047 8.64159825 477.18209508 11.19726562 477.17871094 C12.97655246 477.17938473 14.75583921 477.18035539 16.53512573 477.18161011 C20.25894042 477.18308275 23.98273108 477.18094592 27.70654297 477.17626953 C32.48271655 477.1705642 37.25883403 477.17385907 42.03500557 477.179842 C45.70665918 477.18345222 49.37829945 477.18230704 53.04995346 477.1797142 C54.81144085 477.17904664 56.57292945 477.17986741 58.33441544 477.18219376 C60.79280062 477.18472871 63.2510943 477.1808681 65.70947266 477.17529297 C66.8035997 477.17832932 66.8035997 477.17832932 67.91983032 477.181427 C70.99643335 477.16847911 73.37125965 477.02696293 76.31445312 476.04589844 C78.26972198 476.16244316 78.26972198 476.16244316 80.45715332 476.47531128 C85.00703047 477.0469888 89.44998894 477.18763245 94.03125 477.17529297 C94.85025787 477.17704529 95.66926575 477.17879761 96.51309204 477.18060303 C99.18648473 477.18496051 101.85980991 477.1821075 104.53320312 477.17871094 C106.40124525 477.17938521 108.26928728 477.18035627 110.1373291 477.18161011 C114.03394413 477.18307834 117.93053611 477.18095877 121.82714844 477.17626953 C126.83208778 477.17054095 131.83697387 477.17387641 136.84191132 477.179842 C140.69018968 477.18344425 144.53845527 477.18231113 148.38673401 477.1797142 C150.23360704 477.17904564 152.08048122 477.17987091 153.92735291 477.18219376 C156.49587112 477.18471818 159.06430092 477.18088416 161.6328125 477.17529297 C162.78440353 477.17832932 162.78440353 477.17832932 163.95925903 477.181427 C167.42737188 477.48253746 167.42737188 477.48253746 170.31445312 476.04589844 C171.91914953 476.05191981 173.52372132 476.10209021 175.12695312 476.17089844 C189.35048472 476.20746279 205.24419332 469.99084897 215.52148438 459.94042969 C216.40900391 459.00263672 216.40900391 459.00263672 217.31445312 458.04589844 C218.06082031 457.30726563 218.8071875 456.56863281 219.57617188 455.80761719 C232.04317529 442.88726819 236.9876468 426.28845335 236.71679688 408.62866211 C236.24665579 396.27276671 232.92227162 385.97116296 227.31445312 375.04589844 C226.65445312 375.04589844 225.99445313 375.04589844 225.31445312 375.04589844 C225.18683594 374.20285156 225.18683594 374.20285156 225.05664062 373.34277344 C222.24190254 364.63189979 211.80773073 357.58422269 204.31445312 353.04589844 C197.9561524 349.84685352 191.54071601 347.04589844 184.31445312 347.04589844 C183.98445313 346.71589844 183.65445312 346.38589844 183.31445312 346.04589844 C181.32688285 345.94606786 179.33577793 345.91509091 177.34570312 345.91308594 C175.53005859 345.91115234 175.53005859 345.91115234 173.67773438 345.90917969 C171.76541016 345.91498047 171.76541016 345.91498047 169.81445312 345.92089844 C168.53957031 345.91703125 167.2646875 345.91316406 165.95117188 345.90917969 C164.74074219 345.91046875 163.5303125 345.91175781 162.28320312 345.91308594 C161.16365234 345.91421387 160.04410156 345.9153418 158.890625 345.91650391 C156.38303511 345.75373476 156.38303511 345.75373476 155.31445312 347.04589844 C155.31445312 346.71589844 155.31445312 346.38589844 155.31445312 346.04589844 C142.94526598 346.02277689 130.57608393 346.00498432 118.20687962 345.99408627 C112.4640025 345.98885702 106.72114012 345.98175863 100.97827148 345.97045898 C95.44105318 345.95963156 89.90384909 345.95362191 84.36662102 345.95102119 C82.24901035 345.94916668 80.1314005 345.94554558 78.01379585 345.94016838 C75.05874038 345.93295988 72.10374442 345.93190741 69.14868164 345.93237305 C68.26395676 345.92877777 67.37923187 345.9251825 66.46769714 345.92147827 C62.57913789 345.54141929 62.57913789 345.54141929 59.31445312 347.04589844 C59.31445312 346.71589844 59.31445312 346.38589844 59.31445312 346.04589844 C58.59004532 346.04589844 57.86563751 346.04589844 57.11927795 346.04589844 C-31.77835036 346.04589844 -31.77835036 346.04589844 -36.75405884 346.01898193 C-52.17388695 345.93785879 -67.59364462 345.8776124 -83.01363564 345.83864975 C-90.93756382 345.81809073 -98.86133127 345.79009232 -106.78515625 345.74414062 C-113.70127427 345.70405259 -120.61727576 345.67841425 -127.53350675 345.66954446 C-131.18885272 345.66436735 -134.84386532 345.65235502 -138.49910355 345.62297821 C-163.70643769 345.42834594 -184.02910504 347.12752578 -202.22119141 366.33691406 Z " fill="#0070B9" transform="translate(502.685546875,97.9541015625)"/>
<path d="M0 0 C1.6396875 0.2475 1.6396875 0.2475 3.3125 0.5 C6.62234081 0.94879197 7.9513008 0.84102047 11 0 C12.33333333 0.33333333 13.66666667 0.66666667 15 1 C15.60972656 0.83628906 16.21945312 0.67257812 16.84765625 0.50390625 C19.25988321 -0.0608438 20.99320628 0.09436691 23.4375 0.4375 C29.3603288 1.39383552 29.3603288 1.39383552 35 0 C35 0.66 35 1.32 35 2 C36.32 2 37.64 2 39 2 C39.33 1.34 39.66 0.68 40 0 C41.37488287 -0.02749766 42.74993391 -0.0466164 44.125 -0.0625 C45.27355469 -0.07990234 45.27355469 -0.07990234 46.4453125 -0.09765625 C49 0 49 0 51.796875 0.49609375 C55.58769933 1.09245514 59.29949811 1.14629222 63.125 1.125 C63.82753906 1.12886719 64.53007812 1.13273438 65.25390625 1.13671875 C69.12807547 1.1535319 69.12807547 1.1535319 72.91967773 0.46484375 C75.4387711 -0.0980425 77.40029081 0.12929857 79.96484375 0.4296875 C88.24846065 1.21237164 96.5176687 1.14988965 104.83032227 1.13037109 C107.58810772 1.12494966 110.34573472 1.13037734 113.10351562 1.13671875 C114.86197952 1.13605896 116.62044333 1.13477987 118.37890625 1.1328125 C119.20072891 1.13483673 120.02255157 1.13686096 120.86927795 1.13894653 C124.1676401 1.12529991 126.84891737 1.05036088 130 0 C131.66808142 0.32617982 133.33446102 0.66107702 135 1 C137.63049551 1.0923195 140.23379993 1.13673378 142.86376953 1.12939453 C144.02806488 1.13202301 144.02806488 1.13202301 145.21588135 1.13470459 C147.77154806 1.13909203 150.32714513 1.13619665 152.8828125 1.1328125 C154.66209934 1.13348629 156.44138608 1.13445695 158.22067261 1.13571167 C161.94448729 1.13718431 165.66827795 1.13504748 169.39208984 1.13037109 C174.16826342 1.12466577 178.94438091 1.12796063 183.72055244 1.13394356 C187.39220606 1.13755378 191.06384633 1.1364086 194.73550034 1.13381577 C196.49698773 1.13314821 198.25847633 1.13396897 200.01996231 1.13629532 C202.47834749 1.13883027 204.93664118 1.13496967 207.39501953 1.12939453 C208.48914658 1.13243088 208.48914658 1.13243088 209.6053772 1.13552856 C212.68198023 1.12258068 215.05680653 0.98106449 218 0 C220.23786817 0.24245894 222.46775934 0.56388029 224.6875 0.9375 C225.86699219 1.13214844 227.04648437 1.32679688 228.26171875 1.52734375 C229.16535156 1.68332031 230.06898438 1.83929687 231 2 C231 2.33 231 2.66 231 3 C216.32519022 3.82820923 201.70574875 4.14930883 187.00927734 4.14526367 C184.79432622 4.14826489 182.57937561 4.15166959 180.36442566 4.15544128 C174.42143963 4.16417458 168.47846804 4.16661446 162.53547621 4.16725707 C158.81812995 4.16797218 155.10078728 4.17011484 151.38344193 4.17275429 C137.73879555 4.18243615 124.09416045 4.18602372 110.44951089 4.18517885 C99.69579099 4.1847704 88.94210575 4.1944004 78.1883959 4.2084411 C67.11246355 4.2227877 56.03654556 4.22952919 44.96060336 4.22884732 C38.75518709 4.22859215 32.54981041 4.23145592 26.34440231 4.24202538 C20.52807208 4.25166625 14.71181972 4.25181334 8.89548683 4.24450874 C6.75847701 4.24345882 4.62146243 4.24584979 2.48446083 4.2518692 C-0.42334521 4.25953265 -3.33087825 4.25498254 -6.23867798 4.24723816 C-7.51727847 4.2549535 -7.51727847 4.2549535 -8.82170928 4.26282471 C-12.7325174 4.23967162 -14.67099535 4.21933644 -18 2 C-16.17662109 1.90912109 -16.17662109 1.90912109 -14.31640625 1.81640625 C-12.73175772 1.73201668 -11.14712298 1.6473679 -9.5625 1.5625 C-8.76005859 1.52318359 -7.95761719 1.48386719 -7.13085938 1.44335938 C-3.24760439 1.5945704 -3.24760439 1.5945704 0 0 Z " fill="#0A64A6" transform="translate(361,573)"/>
<path d="M0 0 C0.99 0.33 1.98 0.66 3 1 C2.154375 1.71285156 1.30875 2.42570313 0.4375 3.16015625 C-5.75607528 8.38687153 -11.93435317 13.624752 -18 19 C-18.69609375 19.60328125 -19.3921875 20.2065625 -20.109375 20.828125 C-25.84278441 25.86890777 -31.28071906 31.17496443 -36.6875 36.5625 C-37.400271 37.27067871 -38.11304199 37.97885742 -38.84741211 38.70849609 C-43.43585661 43.31026516 -47.76883601 48.06970203 -52 53 C-52.96119295 54.0946699 -53.92338138 55.18846677 -54.88671875 56.28125 C-84.73834022 90.45301623 -110.27969097 131.60181741 -124.84765625 174.68359375 C-126.60426563 179.73905599 -128.64485031 184.67129574 -130.66796875 189.625 C-131.8905429 192.72266588 -132.9805433 195.8305043 -134 199 C-134.33 199 -134.66 199 -135 199 C-134.48383242 191.66686058 -132.21336402 185.34752386 -129.625 178.5 C-129.17801758 177.31019531 -128.73103516 176.12039063 -128.27050781 174.89453125 C-110.19968815 127.5608046 -84.03830664 83.6568533 -49.40234375 46.5859375 C-47.43825308 44.47174559 -45.55049651 42.3271455 -43.6875 40.125 C-35.85339626 31.09875004 -27.12069287 22.71027645 -18 15 C-16.7616371 13.92346467 -15.52481935 12.84515081 -14.2890625 11.765625 C-12.92187515 10.57291649 -11.55468765 9.38020816 -10.1875 8.1875 C-9.19858765 7.32306274 -9.19858765 7.32306274 -8.18969727 6.44116211 C-7.25081665 5.6253064 -7.25081665 5.6253064 -6.29296875 4.79296875 C-5.7311792 4.3033667 -5.16938965 3.81376465 -4.59057617 3.30932617 C-3 2 -3 2 0 0 Z " fill="#0A5995" transform="translate(254,187)"/>
<path d="M0 0 C2.80582088 3.41503581 4.65658401 7.16886089 6.5625 11.125 C27.64117129 53.92555384 55.96280977 91.93052188 89.5625 125.6875 C90.61775879 126.74976807 90.61775879 126.74976807 91.69433594 127.83349609 C92.35336914 128.49043457 93.01240234 129.14737305 93.69140625 129.82421875 C94.28123291 130.41291748 94.87105957 131.00161621 95.47875977 131.6081543 C96.96758831 133.09788532 96.96758831 133.09788532 99 134 C99 134.66 99 135.32 99 136 C95.20062773 134.3997938 92.57197711 131.97157938 89.5625 129.1875 C88.63566406 128.33542969 87.70882812 127.48335937 86.75390625 126.60546875 C79.13121547 119.39364641 79.13121547 119.39364641 78 116 C77.34 116 76.68 116 76 116 C74.58984375 114.6015625 74.58984375 114.6015625 72.9375 112.625 C70.26933688 109.47821792 67.54691752 106.40792312 64.75 103.375 C59.65056147 97.72146288 54.99170907 91.7628393 50.34667969 85.73632812 C49.1016976 84.13112279 47.83684535 82.54138163 46.5703125 80.953125 C36.53002626 68.24640209 27.6645082 54.58409075 19.234375 40.765625 C18.10761236 38.85513721 18.10761236 38.85513721 16 38 C15.855625 37.2575 15.71125 36.515 15.5625 35.75 C14.93032091 32.65934668 13.65305788 30.65926702 12 28 C12 27.34 12 26.68 12 26 C10.68 26.33 9.36 26.66 8 27 C8.66 26.01 9.32 25.02 10 24 C9.44570312 22.89140625 8.89140625 21.7828125 8.3203125 20.640625 C6.21354167 16.42708333 4.10677083 12.21354167 2 8 C1.62987793 7.34225586 1.25975586 6.68451172 0.87841797 6.00683594 C0 4 0 4 0 0 Z " fill="#0B5894" transform="translate(136,679)"/>
<path d="M0 0 C36.04916261 3.69735001 78.97242624 45.51871554 104.828125 69.05078125 C106.74573016 70.77179739 108.70060593 72.42287281 110.6875 74.0625 C113.91788499 76.79882611 116.61703875 79.87706476 119.35546875 83.09765625 C121.4573106 85.529003 123.69365117 87.76354053 126 90 C125.505 91.485 125.505 91.485 125 93 C123.9171875 91.6696875 123.9171875 91.6696875 122.8125 90.3125 C118.75261541 85.45655961 114.26967652 81.30321408 109.35546875 77.33203125 C108.68451172 76.67267578 108.68451172 76.67267578 108 76 C108 75.34 108 74.68 108 74 C107.40960937 73.74089844 106.81921875 73.48179687 106.2109375 73.21484375 C103.83302607 71.90825284 102.45552572 70.55454269 100.625 68.5625 C96.51675503 64.33971289 92.05899947 60.78856834 87.40332031 57.20263672 C83.63282356 54.29558969 79.98158024 51.2985586 76.375 48.1875 C62.67526201 36.72259991 47.54724236 27.21403718 32.13427734 18.24853516 C30.30380414 17.17772299 28.4882057 16.08155388 26.67578125 14.98046875 C20.16552105 11.0458913 13.45886308 7.76442974 6.52075195 4.66308594 C1.10370354 2.20740709 1.10370354 2.20740709 0 0 Z " fill="#085B9A" transform="translate(690,139)"/>
<path d="M0 0 C3 0 3 0 4.3671875 1.1875 C4.86476563 1.785625 5.36234375 2.38375 5.875 3 C6.79539062 4.10214844 6.79539062 4.10214844 7.734375 5.2265625 C8.48203125 6.14179688 9.2296875 7.05703125 10 8 C10.96312976 9.15398974 11.92670434 10.30760831 12.890625 11.4609375 C21.06438814 21.31149911 28.66472321 31.51307357 36 42 C36.43376953 42.61633301 36.86753906 43.23266602 37.31445312 43.86767578 C50.54205828 62.77099265 61.51017387 82.99952784 71 104 C71.47550293 105.0430127 71.95100586 106.08602539 72.44091797 107.16064453 C73.8707176 110.30926109 75.28305592 113.46500083 76.6875 116.625 C77.33960449 118.07434937 77.33960449 118.07434937 78.00488281 119.55297852 C78.5960791 120.90734009 78.5960791 120.90734009 79.19921875 122.2890625 C79.54815186 123.08006348 79.89708496 123.87106445 80.2565918 124.68603516 C81.07747551 127.24115366 81.13610528 129.33280898 81 132 C77.55578291 128.14247686 76.11751994 123.50759337 74.3125 118.75 C71.01990524 110.32086655 67.3598778 102.2526072 63.16308594 94.24072266 C61.85875836 91.72789341 60.58949625 89.19872294 59.3203125 86.66796875 C49.76038783 67.76751695 38.60404825 50.01331428 26 33 C25.26523437 31.99066406 24.53046875 30.98132813 23.7734375 29.94140625 C19.3689935 23.95727651 14.73374379 18.23869266 9.89941406 12.60253906 C6.40908845 8.52426424 3.15126269 4.34363236 0 0 Z " fill="#085895" transform="translate(817,233)"/>
<path d="M0 0 C0.33 0 0.66 0 1 0 C0.52864297 7.09560668 -1.69288591 12.8181501 -4.5 19.3125 C-4.95141357 20.37138428 -5.40282715 21.43026855 -5.86791992 22.52124023 C-7.2285602 25.68844092 -8.60884187 28.84609741 -10 32 C-10.37721191 32.85658203 -10.75442383 33.71316406 -11.14306641 34.59570312 C-20.65598188 55.95283139 -32.69477087 75.8142985 -46 95 C-46.47598633 95.68980957 -46.95197266 96.37961914 -47.44238281 97.09033203 C-52.94026939 105.03017331 -58.7964946 112.59476842 -65 120 C-66.62765062 121.9769874 -68.25268758 123.95612974 -69.875 125.9375 C-70.95394531 127.25041016 -70.95394531 127.25041016 -72.0546875 128.58984375 C-73.7530069 130.69398646 -75.39480735 132.8244087 -77 135 C-77.99 134.67 -78.98 134.34 -80 134 C-79.47792969 133.44054687 -78.95585938 132.88109375 -78.41796875 132.3046875 C-54.58618548 106.34432114 -34.26992392 75.83583117 -19.01074219 44.09521484 C-17.96024399 41.9175879 -16.89078393 39.74990123 -15.8203125 37.58203125 C-9.83095098 25.32645622 -4.81674123 12.75687844 0 0 Z " fill="#0A5995" transform="translate(900,648)"/>
<path d="M0 0 C5.60404221 3.29269761 11.11530413 6.70432277 16.5625 10.25 C24.55739972 15.4286773 32.73480423 20.26709208 41 25 C42.13179688 25.65613281 43.26359375 26.31226563 44.4296875 26.98828125 C64.50958722 38.18757867 86.42609632 46.20177052 108 54 C108 54.33 108 54.66 108 55 C101.00822819 54.4621714 94.4680894 52.74246991 88 50 C87.67 49.34 87.34 48.68 87 48 C85.75992188 47.75507812 84.51984375 47.51015625 83.2421875 47.2578125 C76.7012996 45.93409222 71.04762113 42.85706741 65.125 39.875 C62.90103557 38.76301778 60.67458454 37.65599055 58.4453125 36.5546875 C57.47094238 36.06468262 56.49657227 35.57467773 55.49267578 35.06982422 C52.99262252 33.8028014 52.99262252 33.8028014 50 34 C50 33.34 50 32.68 50 32 C49.36320312 31.77054688 48.72640625 31.54109375 48.0703125 31.3046875 C36.39065575 26.34157636 25.34437092 19.36765969 14.625 12.625 C13.45880127 11.89434326 13.45880127 11.89434326 12.26904297 11.14892578 C7.90697472 8.36663877 3.80562616 5.51567369 0 2 C0 1.34 0 0.68 0 0 Z " fill="#0A5A98" transform="translate(274,846)"/>
<path d="M0 0 C16.7714954 1.74110863 31.69001163 9.92219716 42.4140625 22.88671875 C48.21537176 30.61703478 51.92010565 38.86491713 55 48 C55.24878906 48.72445312 55.49757813 49.44890625 55.75390625 50.1953125 C58.25552869 59.11718276 58.24534196 71.01863216 56 80 C55.67 80 55.34 80 55 80 C54.98541748 79.40687012 54.97083496 78.81374023 54.95581055 78.20263672 C54.53793828 62.94365445 53.96042537 49.01252964 46.98828125 35.109375 C46 33 46 33 46 31 C45.34 31 44.68 31 44 31 C43.505 30.01 43.01 29.02 42.5 28 C35.39172951 15.71532348 22.95403865 9.35786857 10.06640625 4.75 C7.04054933 4.0099178 5.86483311 4.08457057 3 5 C1.25 3.6875 1.25 3.6875 0 2 C0 1.34 0 0.68 0 0 Z " fill="#0A5794" transform="translate(684,442)"/>
<path d="M0 0 C9.14583983 -0.02331908 18.2916692 -0.04101375 27.43753242 -0.05181217 C31.68574205 -0.05699864 35.93393111 -0.06401791 40.18212891 -0.07543945 C44.29295932 -0.08642068 48.40377014 -0.09230861 52.51461411 -0.09487724 C54.07163679 -0.09670436 55.62865858 -0.10027118 57.18567276 -0.10573006 C66.84553437 -0.1382057 76.36924599 0.15729559 86 1 C86 1.66 86 2.32 86 3 C56.98148664 3.12891828 28.00605913 2.87769823 -1 2 C-0.67 1.34 -0.34 0.68 0 0 Z " fill="#095C9C" transform="translate(594,574)"/>
<path d="M0 0 C-0.54599854 0.2902002 -1.09199707 0.58040039 -1.65454102 0.87939453 C-21.71402237 11.58139778 -41.35357118 22.66803776 -59.30078125 36.68798828 C-67.47562337 43 -67.47562337 43 -70 43 C-68.48851528 38.46554583 -64.80133533 36.49712853 -61 34 C-60.29012939 33.52433594 -59.58025879 33.04867187 -58.84887695 32.55859375 C-57.3374166 31.5471021 -55.82342448 30.53938504 -54.30712891 29.53515625 C-52.06103201 28.04061051 -49.83153862 26.52417387 -47.60546875 25 C-37.69069336 18.24497499 -27.53765343 12.04914649 -17.078125 6.17480469 C-15.2069541 5.1169952 -13.35138768 4.03724009 -11.5 2.9453125 C-10.530625 2.38585937 -9.56125 1.82640625 -8.5625 1.25 C-7.35787109 0.54617187 -7.35787109 0.54617187 -6.12890625 -0.171875 C-3.58734043 -1.16052079 -2.5515917 -0.75409929 0 0 Z " fill="#095A98" transform="translate(329,142)"/>
<path d="M0 0 C0.66 0 1.32 0 2 0 C2.27972656 0.75023437 2.55945313 1.50046875 2.84765625 2.2734375 C9.11206374 18.26681225 19.38392054 30.66689979 35.01318359 38.17041016 C40.76161128 40.57065067 46.90969796 41.79775856 53 43 C50.52818003 44.59906837 49.30584984 45.03273759 46.3359375 44.71484375 C34.67117013 41.65245759 26.08160293 36.92911525 17 29 C16.37222656 28.47921875 15.74445313 27.9584375 15.09765625 27.421875 C8.26202167 21.28375416 2.95460107 11.66882954 0 3 C0 2.01 0 1.02 0 0 Z " fill="#085C9C" transform="translate(287,530)"/>
<path d="M0 0 C0.495 0.99 0.495 0.99 1 2 C-21.44 2 -43.88 2 -67 2 C-64.62011694 -0.37988306 -64.01658691 -0.28160584 -60.765625 -0.4140625 C-59.89284912 -0.45289551 -59.02007324 -0.49172852 -58.12084961 -0.53173828 C-57.17346924 -0.56251465 -56.22608887 -0.59329102 -55.25 -0.625 C-53.77575562 -0.68083252 -53.77575562 -0.68083252 -52.27172852 -0.73779297 C-34.80500275 -1.34167722 -17.44465462 -0.99887593 0 0 Z " fill="#0D5F9D" transform="translate(543,99)"/>
<path d="M0 0 C0 0.66 0 1.32 0 2 C-14.29880187 8.67763669 -28.57562966 15.14406752 -43.5 20.3125 C-44.58394043 20.69075928 -45.66788086 21.06901855 -46.78466797 21.45874023 C-51.37151544 23.00245418 -55.11897493 24.21176645 -60 24 C-57.65498963 21.65498963 -55.9943901 21.17956386 -52.85546875 20.15234375 C-51.79569824 19.79873779 -50.73592773 19.44513184 -49.64404297 19.08081055 C-47.9330542 18.51487183 -47.9330542 18.51487183 -46.1875 17.9375 C-32.6590526 13.36464878 -19.29807968 8.31770083 -6.6015625 1.73828125 C-3 0 -3 0 0 0 Z " fill="#0A5A97" transform="translate(694,880)"/>
<path d="M0 0 C2.46022916 0.67301591 2.46022916 0.67301591 4.4453125 0.00390625 C6.84157948 -0.56642298 8.56943883 -0.40370529 11 -0.0625 C16.9228288 0.89383552 16.9228288 0.89383552 22.5625 -0.5 C22.5625 0.16 22.5625 0.82 22.5625 1.5 C23.8825 1.5 25.2025 1.5 26.5625 1.5 C26.8925 0.84 27.2225 0.18 27.5625 -0.5 C32.7150401 -0.6030508 37.47787283 -0.41523289 42.5625 0.5 C46.22554903 0.87648004 49.89302232 1.19312197 53.5625 1.5 C53.5625 1.83 53.5625 2.16 53.5625 2.5 C33.7625 2.5 13.9625 2.5 -6.4375 2.5 C-4.90826596 -0.55846808 -3.19826216 -0.65605378 0 0 Z " fill="#0F619F" transform="translate(373.4375,573.5)"/>
<path d="M0 0 C0.33 0 0.66 0 1 0 C1.10546143 0.75917725 1.21092285 1.51835449 1.31958008 2.30053711 C4.55517315 26.42689269 4.55517315 26.42689269 9.1875 50.3125 C10 54 10 54 10 58 C9.34 58 8.68 58 8 58 C7.01913219 53.0016627 6.04061365 48.00287318 5.06420898 43.00366211 C4.73216224 41.30529554 4.39948926 39.60705128 4.06616211 37.90893555 C3.58540255 35.45914582 3.10694427 33.00891582 2.62890625 30.55859375 C2.48095108 29.80726669 2.33299591 29.05593964 2.18055725 28.28184509 C0.79680833 21.1668078 -0.12686532 14.33578137 -0.0625 7.0625 C-0.05798828 6.37865234 -0.05347656 5.69480469 -0.04882812 4.99023438 C-0.0371956 3.32678396 -0.01926694 1.6633795 0 0 Z " fill="#0C5690" transform="translate(102,552)"/>
<path d="M0 0 C5.86778166 0.66969247 11.330625 2.124813 17 3.75 C28.56504897 6.99469916 40.23978166 9.57235726 52 12 C52 12.33 52 12.66 52 13 C40.92308521 13.37548864 30.38138706 11.51958317 19.921875 7.95703125 C17.58504549 7.19162586 15.24601387 6.46629936 12.890625 5.76171875 C12.16842773 5.54354492 11.44623047 5.32537109 10.70214844 5.10058594 C9.24371569 4.66143922 7.78342701 4.22840586 6.32128906 3.80175781 C4.52907925 3.25868993 2.76158177 2.63542771 1 2 C0.67 1.34 0.34 0.68 0 0 Z " fill="#0B5B98" transform="translate(383,901)"/>
<path d="M0 0 C-1.32224222 3.00205422 -2.65815307 4.83263345 -5.1875 6.91015625 C-5.80367187 7.42513672 -6.41984375 7.94011719 -7.0546875 8.47070312 C-8.01761719 9.25864258 -8.01761719 9.25864258 -9 10.0625 C-10.27370493 11.1124114 -11.54465466 12.1656764 -12.8125 13.22265625 C-13.37582031 13.68422119 -13.93914063 14.14578613 -14.51953125 14.62133789 C-16.2527442 16.12898993 -16.2527442 16.12898993 -18 19 C-18.66 19 -19.32 19 -20 19 C-22.38087959 20.81244459 -24.69432107 22.65848274 -27 24.5625 C-31.52254811 28.22988524 -36.04081422 31.88510443 -40.75 35.3125 C-41.88695312 36.14201172 -41.88695312 36.14201172 -43.046875 36.98828125 C-43.69140625 37.32214844 -44.3359375 37.65601563 -45 38 C-45.99 37.67 -46.98 37.34 -48 37 C-46.60201172 35.98292969 -46.60201172 35.98292969 -45.17578125 34.9453125 C-33.01452341 26.07769521 -21.07282031 17.22396696 -10 7 C-8.50606852 5.63914141 -7.00650355 4.28442777 -5.5 2.9375 C-4.8709375 2.36902344 -4.241875 1.80054688 -3.59375 1.21484375 C-2 0 -2 0 0 0 Z " fill="#0A5893" transform="translate(791,813)"/>
<path d="M0 0 C0 0.66 0 1.32 0 2 C-1.6262207 3.24584961 -1.6262207 3.24584961 -3.92578125 4.65234375 C-4.77648193 5.17666992 -5.62718262 5.70099609 -6.50366211 6.24121094 C-7.43057861 6.80098633 -8.35749512 7.36076172 -9.3125 7.9375 C-10.25424072 8.51145508 -11.19598145 9.08541016 -12.16625977 9.67675781 C-15.10510972 11.46085771 -18.05172572 13.231526 -21 15 C-21.91168945 15.55123535 -22.82337891 16.1024707 -23.76269531 16.67041016 C-26.31392712 18.20913652 -28.873536 19.73260389 -31.4375 21.25 C-32.5972937 21.94790649 -32.5972937 21.94790649 -33.78051758 22.65991211 C-37.86677079 25.04502321 -41.18460493 26.60316871 -46 27 C-42.15156947 23.6760197 -38.08244255 21.38203728 -33.5625 19.125 C-25.07534028 14.78416649 -17.10791351 9.74103955 -9.13696289 4.52197266 C-8.2371167 3.93593262 -7.33727051 3.34989258 -6.41015625 2.74609375 C-5.60715088 2.21685303 -4.80414551 1.6876123 -3.97680664 1.14233398 C-2 0 -2 0 0 0 Z " fill="#0A5996" transform="translate(742,852)"/>
<path d="M0 0 C0.33 0 0.66 0 1 0 C1.32207599 9.84686124 0.489707 18.82028502 -1.375 28.5 C-1.59671875 29.72203125 -1.8184375 30.9440625 -2.046875 32.203125 C-3.05418919 37.6307709 -4.16353018 42.78415262 -6 48 C-6.33 48 -6.66 48 -7 48 C-6.42093839 41.02685942 -5.38994647 34.24165241 -4.0625 27.375 C-2.35007431 18.27560963 -1.00223799 9.20476469 0 0 Z " fill="#0B5995" transform="translate(921,555)"/>
<path d="M0 0 C5.07037005 0.56626726 9.54847931 1.70861399 14.3125 3.5625 C14.98748535 3.82135986 15.6624707 4.08021973 16.35791016 4.34692383 C21.91268297 6.51035498 27.4072932 8.8133714 32.875 11.1875 C33.65399658 11.52015869 34.43299316 11.85281738 35.2355957 12.19555664 C35.959646 12.51645264 36.68369629 12.83734863 37.4296875 13.16796875 C38.07147949 13.44922607 38.71327148 13.7304834 39.37451172 14.02026367 C41 15 41 15 43 18 C37.93491015 16.41111035 33.1204638 14.40448445 28.25 12.3125 C18.91029664 8.33589044 9.48098228 4.6247483 0 1 C0 0.67 0 0.34 0 0 Z " fill="#095A98" transform="translate(646,121)"/>
<path d="M0 0 C0.99 0.33 1.98 0.66 3 1 C3.1139209 1.58193115 3.2278418 2.1638623 3.34521484 2.76342773 C4.27948435 7.49008772 5.25430778 12.20441252 6.2890625 16.91015625 C6.50820313 17.92013672 6.72734375 18.93011719 6.953125 19.97070312 C7.40220687 22.03726301 7.85797519 24.10238084 8.3203125 26.16601562 C9.62791432 32.25648241 10.24630056 37.77118854 10 44 C8.06242249 40.60560121 7.32090773 37.33241195 6.5625 33.51171875 C6.17964844 31.61583008 6.17964844 31.61583008 5.7890625 29.68164062 C5.52564546 28.35033875 5.26262774 27.01895781 5 25.6875 C4.48279795 23.08648453 3.96089376 20.48650545 3.4375 17.88671875 C3.20933594 16.73389404 2.98117187 15.58106934 2.74609375 14.39331055 C2.2229739 12.01410807 1.60182507 9.65535683 0.91015625 7.31958008 C0 4 0 4 0 0 Z " fill="#095895" transform="translate(909,400)"/>
<path d="M0 0 C0.99 0.33 1.98 0.66 3 1 C-2.44344881 5.93112421 -7.98758517 9.78552761 -14.625 12.875 C-15.23351807 13.16060791 -15.84203613 13.44621582 -16.46899414 13.74047852 C-23.21602268 16.75876694 -29.61865985 18.30755584 -37 18 C-33.95974596 15.97316397 -32.32135341 15.56225129 -28.8125 14.875 C-23.36812126 13.57524576 -18.60777621 11.6097521 -13.625 9.125 C-12.95960205 8.79741699 -12.2942041 8.46983398 -11.60864258 8.13232422 C-8.294694 6.42895881 -5.49733978 4.66392909 -2.7109375 2.1796875 C-1.36902344 1.10074219 -1.36902344 1.10074219 0 0 Z " fill="#0A5795" transform="translate(718,557)"/>
<path d="M0 0 C0 0.33 0 0.66 0 1 C-5.01635018 1.71738463 -10.03343677 2.42929026 -15.05126953 3.13623047 C-16.7565587 3.37725502 -18.46164077 3.61974974 -20.16650391 3.86376953 C-22.62348716 4.21517694 -25.0811778 4.56121122 -27.5390625 4.90625 C-28.29555084 5.0156189 -29.05203918 5.12498779 -29.83145142 5.2376709 C-33.92444104 5.80649934 -37.85478008 6.11466722 -42 6 C-41.67 5.01 -41.34 4.02 -41 3 C-40.36835938 2.95101562 -39.73671875 2.90203125 -39.0859375 2.8515625 C-33.78189167 2.40828489 -28.56732413 1.78816613 -23.3125 0.9375 C-15.51553702 -0.2307464 -7.85850693 -0.18370536 0 0 Z " fill="#0A5C99" transform="translate(475,101)"/>
<path d="M0 0 C10.33876101 -0.56997764 20.20156768 0.37735486 30.4375 1.875 C31.65284424 2.04870117 32.86818848 2.22240234 34.12036133 2.40136719 C35.25497803 2.57571289 36.38959473 2.75005859 37.55859375 2.9296875 C38.58267334 3.08679199 39.60675293 3.24389648 40.66186523 3.40576172 C41.43344971 3.60186035 42.20503418 3.79795898 43 4 C43.495 4.99 43.495 4.99 44 6 C34.36978704 5.30833363 24.82287357 4.1626127 15.25 2.9375 C13.7630503 2.74911626 12.27607127 2.56096377 10.7890625 2.37304688 C7.19236737 1.91802262 3.59607581 1.45989629 0 1 C0 0.67 0 0.34 0 0 Z " fill="#095795" transform="translate(547,101)"/>
<path d="M0 0 C-3.1274402 2.08496013 -5.4506797 2.78684792 -9.0625 3.75 C-15.81510549 5.61084327 -22.42952085 7.77026737 -29.04516602 10.06933594 C-32.14419676 11.13022233 -34.69963387 12 -38 12 C-38 11.34 -38 10.68 -38 10 C-34.16836326 8.70326311 -30.33440122 7.41353716 -26.5 6.125 C-25.42234375 5.76019531 -24.3446875 5.39539063 -23.234375 5.01953125 C-7.19442247 -0.35972112 -7.19442247 -0.35972112 0 0 Z " fill="#095D9B" transform="translate(405,113)"/>
<path d="M0 0 C1.24408846 3.54979908 0.70653282 5.69780965 -0.375 9.25 C-2.10726001 15.65936204 -2.51579734 21.7385358 -2.7890625 28.3359375 C-2.97883936 31.6324318 -3.38790632 34.75891379 -4 38 C-4.33 38 -4.66 38 -5 38 C-5.57785093 24.35738393 -5.59189375 12.64167409 0 0 Z " fill="#0B5692" transform="translate(289,480)"/>
<path d="M0 0 C0 4.36395312 -2.70302598 6.31462338 -5.5625 9.3125 C-6.1080957 9.89410889 -6.65369141 10.47571777 -7.21582031 11.07495117 C-10.93624977 14.99882439 -14.76397036 18.63043097 -19 22 C-19.66 21.67 -20.32 21.34 -21 21 C-14.07 14.07 -7.14 7.14 0 0 Z " fill="#0A5590" transform="translate(813,790)"/>
<path d="M0 0 C0 0.66 0 1.32 0 2 C-10.37281803 3.82283831 -20.42073458 5.57014005 -31 5 C-31 4.67 -31 4.34 -31 4 C-27.14744143 3.3238128 -23.29273043 2.66076908 -19.4375 2 C-18.35146484 1.80921875 -17.26542969 1.6184375 -16.14648438 1.421875 C-10.69086726 0.49325932 -5.53547904 -0.25413964 0 0 Z " fill="#0B5995" transform="translate(593,914)"/>
<path d="M0 0 C3.49639241 3.49639241 4.78997136 8.40440582 6.625 12.9375 C7.25535156 14.46020508 7.25535156 14.46020508 7.8984375 16.01367188 C8.29546875 16.98755859 8.6925 17.96144531 9.1015625 18.96484375 C9.46588379 19.8580835 9.83020508 20.75132324 10.20556641 21.67163086 C11 24 11 24 11 27 C10.34 27 9.68 27 9 27 C7.48555494 23.44347078 5.99103689 19.87889906 4.5 16.3125 C4.07074219 15.30509766 3.64148438 14.29769531 3.19921875 13.25976562 C2.79316406 12.28330078 2.38710937 11.30683594 1.96875 10.30078125 C1.59169922 9.40528564 1.21464844 8.50979004 0.82617188 7.5871582 C-0.03079756 4.90355742 -0.15873016 2.79761902 0 0 Z " fill="#0B5791" transform="translate(124,650)"/>
<path d="M0 0 C1.81247935 2.71871903 2.71075498 4.75827574 3.7265625 7.81640625 C4.0359375 8.74517578 4.3453125 9.67394531 4.6640625 10.63085938 C4.98117188 11.59830078 5.29828125 12.56574219 5.625 13.5625 C5.94984375 14.53380859 6.2746875 15.50511719 6.609375 16.50585938 C9 23.73297991 9 23.73297991 9 26 C8.34 26 7.68 26 7 26 C0.04255319 8.85106383 0.04255319 8.85106383 0 0 Z " fill="#0A5691" transform="translate(115,622)"/>
<path d="M0 0 C3.30413508 1.48950712 5.88904945 3.39376194 8.6875 5.6875 C13.40870846 9.52479722 18.18649543 13.27941675 23 17 C22.34 17.33 21.68 17.66 21 18 C15.36366051 13.97098166 9.77302594 9.89030353 4.3125 5.625 C3.48363281 4.97789062 2.65476563 4.33078125 1.80078125 3.6640625 C1.20652344 3.11492188 0.61226562 2.56578125 0 2 C0 1.34 0 0.68 0 0 Z " fill="#0A5893" transform="translate(250,828)"/>
<path d="M0 0 C0.66 0.33 1.32 0.66 2 1 C1.25556641 1.65742188 1.25556641 1.65742188 0.49609375 2.328125 C-4.75971837 7.23487939 -8.18069922 12.31629062 -11.5546875 18.65625 C-12.03164063 19.4296875 -12.50859375 20.203125 -13 21 C-13.66 21 -14.32 21 -15 21 C-15.3125 18.8125 -15.3125 18.8125 -15 16 C-12.9375 13.75 -12.9375 13.75 -11.56640625 12.52734375 C-8.92721995 9.95397257 -6.84225189 6.94149292 -4.6484375 3.98828125 C-3 2 -3 2 0 0 Z " fill="#095996" transform="translate(306,457)"/>
<path d="M0 0 C1.76430893 5.29292679 -1.60565481 10.20526329 -4 15 C-5.83725359 17.82027012 -7.81214152 20.44373923 -10 23 C-10.33 22.01 -10.66 21.02 -11 20 C-9.70703125 17.6171875 -9.70703125 17.6171875 -7.8125 14.875 C-4.62334998 10.08489666 -2.1228613 5.34011693 0 0 Z " fill="#0A5793" transform="translate(736,530)"/>
<path d="M0 0 C2.31 0 4.62 0 7 0 C3.43780321 2.95936349 -0.45818496 4.81027576 -4.625 6.75 C-5.305625 7.07871094 -5.98625 7.40742188 -6.6875 7.74609375 C-8.42950494 8.56201306 -10.21281342 9.28847373 -12 10 C-12.66 9.67 -13.32 9.34 -14 9 C-9.46330032 5.98320986 -5.31027254 3.46032495 0 2 C0 1.34 0 0.68 0 0 Z " fill="#095997" transform="translate(344,131)"/>
<path d="M0 0 C1.28132812 0.19464844 2.56265625 0.38929688 3.8828125 0.58984375 C4.87023437 0.74582031 5.85765625 0.90179687 6.875 1.0625 C6.875 1.3925 6.875 1.7225 6.875 2.0625 C-1.045 2.0625 -8.965 2.0625 -17.125 2.0625 C-17.125 1.4025 -17.125 0.7425 -17.125 0.0625 C-15.10677083 0.09505208 -13.08854167 0.12760417 -11.0703125 0.16015625 C-1.93206134 -0.2985913 -1.93206134 -0.2985913 0 0 Z " fill="#0E5E9B" transform="translate(585.125,573.9375)"/>
<path d="M0 0 C0.66 0 1.32 0 2 0 C2.32613281 0.80824219 2.65226562 1.61648438 2.98828125 2.44921875 C3.42527344 3.51785156 3.86226563 4.58648438 4.3125 5.6875 C4.74175781 6.74324219 5.17101562 7.79898438 5.61328125 8.88671875 C6.9119355 12.01055446 6.9119355 12.01055446 8.73046875 14.70703125 C9.35888672 15.84205078 9.35888672 15.84205078 10 17 C9.67 17.99 9.34 18.98 9 20 C0 5.52427184 0 5.52427184 0 0 Z " fill="#085491" transform="translate(287,530)"/>
<path d="M0 0 C0.66 1.32 1.32 2.64 2 4 C2.66 3.34 3.32 2.68 4 2 C4.33 6.95 4.66 11.9 5 17 C2 15 2 15 1.26953125 12.79296875 C1.11871094 11.93316406 0.96789062 11.07335937 0.8125 10.1875 C0.65394531 9.33542969 0.49539063 8.48335937 0.33203125 7.60546875 C0.00486023 5.03813852 -0.06032912 2.58487096 0 0 Z " fill="#0669AD" transform="translate(282,512)"/>
<path d="M0 0 C14.88453159 0.88453159 14.88453159 0.88453159 20 6 C13.04976736 5.35346673 6.61822697 3.13972752 0 1 C0 0.67 0 0.34 0 0 Z " fill="#085897" transform="translate(612,111)"/>
<path d="M0 0 C0.33 0 0.66 0 1 0 C1.41953291 6.29299361 0.22777513 12.09333017 -2 18 C-2.66 18.33 -3.32 18.66 -4 19 C-3.26309887 12.51527007 -1.64681249 6.30760257 0 0 Z " fill="#0B5B97" transform="translate(913,604)"/>
<path d="M0 0 C3.47775179 1.51553404 5.9557984 3.5773456 8.75 6.125 C9.94882813 7.21167969 9.94882813 7.21167969 11.171875 8.3203125 C11.77515625 8.87460937 12.3784375 9.42890625 13 10 C12.01 10.33 11.02 10.66 10 11 C8.32742645 9.5484451 6.66208242 8.08855591 5 6.625 C3.6078125 5.40683594 3.6078125 5.40683594 2.1875 4.1640625 C1.465625 3.44992187 0.74375 2.73578125 0 2 C0 1.34 0 0.68 0 0 Z " fill="#0B5A95" transform="translate(236,816)"/>
<path d="M0 0 C3.68069887 1.53643852 5.98775204 3.78150945 8.75 6.625 C9.54921875 7.44226563 10.3484375 8.25953125 11.171875 9.1015625 C12.07679688 10.04128906 12.07679688 10.04128906 13 11 C12.67 11.99 12.34 12.98 12 14 C11.278125 13.113125 10.55625 12.22625 9.8125 11.3125 C8.05051488 9.19010883 6.27158696 7.27158696 4.3125 5.3125 C2 3 2 3 0 0 Z " fill="#075491" transform="translate(803,218)"/>
<path d="M0 0 C1.65 0.66 3.3 1.32 5 2 C5 2.33 5 2.66 5 3 C-2.59 3 -10.18 3 -18 3 C-18 2.67 -18 2.34 -18 2 C-16.17662109 1.90912109 -16.17662109 1.90912109 -14.31640625 1.81640625 C-12.73175772 1.73201668 -11.14712298 1.6473679 -9.5625 1.5625 C-8.76005859 1.52318359 -7.95761719 1.48386719 -7.13085938 1.44335938 C-3.24760439 1.5945704 -3.24760439 1.5945704 0 0 Z " fill="#084B88" transform="translate(361,573)"/>
<path d="M0 0 C2.70931419 0.15481795 4.46584039 0.48172081 6.4453125 2.40234375 C7.67679642 3.89771708 8.8429837 5.4462924 10 7 C6.433255 7 5.89456323 6.36308045 3.3125 4.0625 C2.68988281 3.51722656 2.06726563 2.97195313 1.42578125 2.41015625 C0.95527344 1.94480469 0.48476563 1.47945313 0 1 C0 0.67 0 0.34 0 0 Z " fill="#0B5E9C" transform="translate(714,456)"/>
<path d="M0 0 C4.87664009 -0.34833144 7.77050005 0.58314288 12 3 C8.69564916 4.12377697 6.9493138 3.89554742 3.75 2.5625 C3.04359375 2.27503906 2.3371875 1.98757812 1.609375 1.69140625 C1.07828125 1.46324219 0.5471875 1.23507813 0 1 C0 0.67 0 0.34 0 0 Z " fill="#095998" transform="translate(633,117)"/>
<path d="M0 0 C0.99 0.33 1.98 0.66 3 1 C-0.96 4.465 -0.96 4.465 -5 8 C-5.66 7.67 -6.32 7.34 -7 7 C-4.69 4.69 -2.38 2.38 0 0 Z " fill="#0B5E9A" transform="translate(799,804)"/>
<path d="M0 0 C-1.125 1.5 -1.125 1.5 -3 3 C-6.1875 3.1875 -6.1875 3.1875 -9 3 C-9 2.34 -9 1.68 -9 1 C-5.57367167 -0.61798838 -3.61944899 -1.34053666 0 0 Z " fill="#085E9F" transform="translate(366,126)"/>
<path d="M0 0 C0.66 0.33 1.32 0.66 2 1 C-1.07999946 4.67230705 -3.2482602 5.56802365 -8 6 C-5.38485683 3.87961365 -2.80362384 1.86908256 0 0 Z " fill="#0B63A1" transform="translate(308,150)"/>
<path d="M0 0 C2.31 0 4.62 0 7 0 C3.57653445 3.14958831 0.55737263 3.56179109 -4 4 C-2.68 3.34 -1.36 2.68 0 2 C0 1.34 0 0.68 0 0 Z " fill="#0B619E" transform="translate(344,131)"/>
<path d="M0 0 C3.81684226 1.55500981 6.19195732 4.03595495 9 7 C5.13066838 6.42676569 2.84777943 4.61046448 0 2 C0 1.34 0 0.68 0 0 Z " fill="#08518B" transform="translate(250,828)"/>
<path d="M0 0 C-1.39332574 3.36720387 -2.9789286 4.9859524 -6 7 C-6.66 6.67 -7.32 6.34 -8 6 C-7.0479279 4.99403703 -6.08812654 3.99538437 -5.125 3 C-4.59132813 2.443125 -4.05765625 1.88625 -3.5078125 1.3125 C-2 0 -2 0 0 0 Z " fill="#09568F" transform="translate(791,813)"/>
<path d="M0 0 C3.63 0.33 7.26 0.66 11 1 C7 3 7 3 3.25 2.125 C1.64125 1.568125 1.64125 1.568125 0 1 C0 0.67 0 0.34 0 0 Z " fill="#0C62A1" transform="translate(329,572)"/>
<path d="M0 0 C-1.12073862 0.83905565 -2.24674547 1.67107831 -3.375 2.5 C-4.00148438 2.9640625 -4.62796875 3.428125 -5.2734375 3.90625 C-7 5 -7 5 -9 5 C-8 2 -8 2 -5.625 0.25 C-3 -1 -3 -1 0 0 Z " fill="#09548F" transform="translate(279,172)"/>
<path d="M0 0 C1.65 0 3.3 0 5 0 C4.67 0.66 4.34 1.32 4 2 C2.68 1.34 1.36 0.68 0 0 Z " fill="#107CC1" transform="translate(671,445)"/>
<path d="M0 0 C1.32 0.33 2.64 0.66 4 1 C3.01 1.33 2.02 1.66 1 2 C0.67 1.34 0.34 0.68 0 0 Z " fill="#117CC2" transform="translate(680,445)"/>
<path d="M0 0 C4 1 4 1 4 1 Z " fill="#0F73B4" transform="translate(575,919)"/>
<path d="M0 0 C4 1 4 1 4 1 Z " fill="#1074B6" transform="translate(449,919)"/>
<path d="M0 0 C4 1 4 1 4 1 Z " fill="#1172B2" transform="translate(352,893)"/>
<path d="M0 0 C0.99 0.495 0.99 0.495 2 1 C1.34 1.66 0.68 2.32 0 3 C0 2.01 0 1.02 0 0 Z " fill="#0F72B4" transform="translate(304,869)"/>
<path d="M0 0 C0.99 0.33 1.98 0.66 3 1 C2.01 1 1.02 1 0 1 C0 0.67 0 0.34 0 0 Z " fill="#107AC2" transform="translate(456,445)"/>
<path d="M0 0 C4 1 4 1 4 1 Z " fill="#107CC3" transform="translate(344,445)"/>
<path d="M0 0 C0.66 0.66 1.32 1.32 2 2 C1.34 2 0.68 2 0 2 C0 1.34 0 0.68 0 0 Z " fill="#1070AF" transform="translate(393,906)"/>
<path d="M0 0 C0.33 0.66 0.66 1.32 1 2 C0.34 1.67 -0.32 1.34 -1 1 C-0.67 0.67 -0.34 0.34 0 0 Z " fill="#1070B0" transform="translate(289,860)"/>
<path d="" fill="#0F72B2" transform="translate(0,0)"/>
<path d="" fill="#1076B6" transform="translate(0,0)"/>
<path d="M0 0 C0.99 0.495 0.99 0.495 2 1 C1.01 1.495 1.01 1.495 0 2 C0 1.34 0 0.68 0 0 Z " fill="#0E75B5" transform="translate(96,498)"/>
<path d="M0 0 C0.66 0.66 1.32 1.32 2 2 C1.34 2 0.68 2 0 2 C0 1.34 0 0.68 0 0 Z " fill="#0F7BC1" transform="translate(579,445)"/>
<path d="M0 0 C3 1 3 1 3 1 Z " fill="#0F7AC0" transform="translate(531,446)"/>
<path d="M0 0 C3 1 3 1 3 1 Z " fill="#107DC3" transform="translate(647,445)"/>
<path d="M0 0 C3 1 3 1 3 1 Z " fill="#107BC1" transform="translate(463,445)"/>
<path d="M0 0 C3 1 3 1 3 1 Z " fill="#107BC1" transform="translate(432,445)"/>
<path d="M0 0 C3 1 3 1 3 1 Z " fill="#117CC1" transform="translate(415,445)"/>
<path d="M0 0 C3 1 3 1 3 1 Z " fill="#117CC4" transform="translate(352,445)"/>
<path d="M0 0 C0.33 0.66 0.66 1.32 1 2 C0.34 1.67 -0.32 1.34 -1 1 C-0.67 0.67 -0.34 0.34 0 0 Z " fill="#107CC1" transform="translate(341,445)"/>
<path d="M0 0 C2 1 2 1 2 1 Z " fill="#1071B3" transform="translate(443,918)"/>
<path d="M0 0 C2 1 2 1 2 1 Z " fill="#0E73B4" transform="translate(402,909)"/>
<path d="M0 0 C2 1 2 1 2 1 Z " fill="#1171B3" transform="translate(380,903)"/>
<path d="M0 0 C2 1 2 1 2 1 Z " fill="#0F71B1" transform="translate(356,894)"/>
<path d="M0 0 C2 1 2 1 2 1 Z " fill="#0D71B3" transform="translate(308,871)"/>
<path d="M0 0 C2 1 2 1 2 1 Z " fill="#116DAD" transform="translate(200,787)"/>
<path d="M0 0 C2 1 2 1 2 1 Z " fill="#1070AE" transform="translate(176,757)"/>
<path d="" fill="#0F71B1" transform="translate(0,0)"/>
<path d="" fill="#0F72B2" transform="translate(0,0)"/>
<path d="" fill="#1172B0" transform="translate(0,0)"/>
<path d="" fill="#1071AE" transform="translate(0,0)"/>
<path d="" fill="#1075B7" transform="translate(0,0)"/>
<path d="" fill="#1075B5" transform="translate(0,0)"/>
<path d="" fill="#127BBE" transform="translate(0,0)"/>
<path d="" fill="#0F7ABC" transform="translate(0,0)"/>
<path d="M0 0 C2 1 2 1 2 1 Z " fill="#0F7BC2" transform="translate(651,446)"/>
<path d="M0 0 C2 1 2 1 2 1 Z " fill="#107BC1" transform="translate(603,446)"/>
<path d="M0 0 C2 1 2 1 2 1 Z " fill="#0F7CC0" transform="translate(587,446)"/>
<path d="M0 0 C2 1 2 1 2 1 Z " fill="#107AC0" transform="translate(539,446)"/>
<path d="M0 0 C2 1 2 1 2 1 Z " fill="#0E7ABF" transform="translate(507,446)"/>
<path d="M0 0 C2 1 2 1 2 1 Z " fill="#107BC0" transform="translate(499,446)"/>
<path d="M0 0 C2 1 2 1 2 1 Z " fill="#0E7BC0" transform="translate(491,446)"/>
<path d="M0 0 C2 1 2 1 2 1 Z " fill="#107BC1" transform="translate(419,446)"/>
<path d="M0 0 C2 1 2 1 2 1 Z " fill="#107BBF" transform="translate(403,446)"/>
<path d="M0 0 C2 1 2 1 2 1 Z " fill="#0F7BC0" transform="translate(379,446)"/>
<path d="M0 0 C2 1 2 1 2 1 Z " fill="#107CC3" transform="translate(663,445)"/>
<path d="M0 0 C2 1 2 1 2 1 Z " fill="#117DC3" transform="translate(640,445)"/>
<path d="M0 0 C2 1 2 1 2 1 Z " fill="#117DC2" transform="translate(632,445)"/>
<path d="M0 0 C2 1 2 1 2 1 Z " fill="#117CC1" transform="translate(624,445)"/>
<path d="M0 0 C2 1 2 1 2 1 Z " fill="#107DC2" transform="translate(616,445)"/>
<path d="M0 0 C2 1 2 1 2 1 Z " fill="#0F7CC2" transform="translate(608,445)"/>
<path d="M0 0 C2 1 2 1 2 1 Z " fill="#107BC2" transform="translate(568,445)"/>
<path d="M0 0 C2 1 2 1 2 1 Z " fill="#0F7BC2" transform="translate(512,445)"/>
<path d="M0 0 C2 1 2 1 2 1 Z " fill="#107CC1" transform="translate(496,445)"/>
<path d="M0 0 C2 1 2 1 2 1 Z " fill="#107BC1" transform="translate(440,445)"/>
<path d="M0 0 C2 1 2 1 2 1 Z " fill="#117DC3" transform="translate(384,445)"/>
<path d="M0 0 C2 1 2 1 2 1 Z " fill="#107CC2" transform="translate(368,445)"/>
<path d="" fill="#1072B0" transform="translate(0,0)"/>
<path d="" fill="#0D71B3" transform="translate(0,0)"/>
<path d="" fill="#0B6FB0" transform="translate(0,0)"/>
<path d="M0 0 C2 1 2 1 2 1 Z " fill="#0B71B3" transform="translate(710,146)"/>
<path d="M0 0 C2 1 2 1 2 1 Z " fill="#0F74B2" transform="translate(361,123)"/>
<path d="M0 0 C2 1 2 1 2 1 Z " fill="#0B72B5" transform="translate(630,113)"/>
<path d="M0 0 C2 1 2 1 2 1 Z " fill="#1072B4" transform="translate(419,106)"/>
<path d="M0 0 C2 1 2 1 2 1 Z " fill="#0E71B2" transform="translate(590,104)"/>
<path d="M0 0 C2 1 2 1 2 1 Z " fill="#0C75B5" transform="translate(430,104)"/>
<path d="M0 0 C2 1 2 1 2 1 Z " fill="#0E74B8" transform="translate(548,98)"/>
<path d="" fill="#000306" transform="translate(0,0)"/>
<path d="" fill="#106DA8" transform="translate(0,0)"/>
<path d="" fill="#1473B2" transform="translate(0,0)"/>
<path d="" fill="#1170AF" transform="translate(0,0)"/>
<path d="" fill="#116FAD" transform="translate(0,0)"/>
<path d="" fill="#1271AF" transform="translate(0,0)"/>
<path d="" fill="#1274B4" transform="translate(0,0)"/>
<path d="" fill="#1172B5" transform="translate(0,0)"/>
<path d="" fill="#1372B4" transform="translate(0,0)"/>
<path d="" fill="#1173B4" transform="translate(0,0)"/>
<path d="" fill="#0D72B1" transform="translate(0,0)"/>
<path d="" fill="#1073B1" transform="translate(0,0)"/>
<path d="" fill="#1074B3" transform="translate(0,0)"/>
<path d="" fill="#1172B3" transform="translate(0,0)"/>
<path d="" fill="#1174B6" transform="translate(0,0)"/>
<path d="" fill="#106FB4" transform="translate(0,0)"/>
<path d="" fill="#1273B5" transform="translate(0,0)"/>
<path d="" fill="#1176B6" transform="translate(0,0)"/>
<path d="" fill="#1174B1" transform="translate(0,0)"/>
<path d="" fill="#1171B0" transform="translate(0,0)"/>
<path d="" fill="#1072B2" transform="translate(0,0)"/>
<path d="" fill="#1071B2" transform="translate(0,0)"/>
<path d="" fill="#0F6EAF" transform="translate(0,0)"/>
<path d="" fill="#0F6EB1" transform="translate(0,0)"/>
<path d="" fill="#126FB1" transform="translate(0,0)"/>
<path d="" fill="#116EB2" transform="translate(0,0)"/>
<path d="" fill="#0E70B1" transform="translate(0,0)"/>
<path d="" fill="#0D73B6" transform="translate(0,0)"/>
<path d="" fill="#1174B6" transform="translate(0,0)"/>
<path d="" fill="#116DAF" transform="translate(0,0)"/>
<path d="" fill="#0F6EAD" transform="translate(0,0)"/>
<path d="" fill="#1172B3" transform="translate(0,0)"/>
<path d="" fill="#116BAB" transform="translate(0,0)"/>
<path d="" fill="#1070B2" transform="translate(0,0)"/>
<path d="" fill="#1370AF" transform="translate(0,0)"/>
<path d="" fill="#1173B4" transform="translate(0,0)"/>
<path d="" fill="#0C74B6" transform="translate(0,0)"/>
<path d="" fill="#126EAC" transform="translate(0,0)"/>
<path d="" fill="#0C71B5" transform="translate(0,0)"/>
<path d="" fill="#126FAE" transform="translate(0,0)"/>
<path d="" fill="#0E70AF" transform="translate(0,0)"/>
<path d="" fill="#0F70AF" transform="translate(0,0)"/>
<path d="" fill="#1371B2" transform="translate(0,0)"/>
<path d="" fill="#0C6DB1" transform="translate(0,0)"/>
<path d="" fill="#106FAE" transform="translate(0,0)"/>
<path d="" fill="#116FAC" transform="translate(0,0)"/>
<path d="" fill="#146DAB" transform="translate(0,0)"/>
<path d="" fill="#116FAF" transform="translate(0,0)"/>
<path d="" fill="#0D6FB0" transform="translate(0,0)"/>
<path d="" fill="#1070AF" transform="translate(0,0)"/>
<path d="" fill="#1172B2" transform="translate(0,0)"/>
<path d="" fill="#0D6FB0" transform="translate(0,0)"/>
<path d="" fill="#106FB1" transform="translate(0,0)"/>
<path d="" fill="#0E6EAE" transform="translate(0,0)"/>
<path d="" fill="#1070B0" transform="translate(0,0)"/>
<path d="" fill="#0E6DAB" transform="translate(0,0)"/>
<path d="" fill="#106CAC" transform="translate(0,0)"/>
<path d="" fill="#0F74B1" transform="translate(0,0)"/>
<path d="" fill="#0E71B1" transform="translate(0,0)"/>
<path d="" fill="#1170B1" transform="translate(0,0)"/>
<path d="" fill="#1173B3" transform="translate(0,0)"/>
<path d="" fill="#1272AF" transform="translate(0,0)"/>
<path d="" fill="#1171B3" transform="translate(0,0)"/>
<path d="" fill="#1270B1" transform="translate(0,0)"/>
<path d="" fill="#1073B1" transform="translate(0,0)"/>
<path d="" fill="#0F71B2" transform="translate(0,0)"/>
<path d="" fill="#1273B1" transform="translate(0,0)"/>
<path d="" fill="#0F71AE" transform="translate(0,0)"/>
<path d="" fill="#1173B1" transform="translate(0,0)"/>
<path d="" fill="#1070AF" transform="translate(0,0)"/>
<path d="" fill="#0E71B2" transform="translate(0,0)"/>
<path d="" fill="#0F73B2" transform="translate(0,0)"/>
<path d="" fill="#1173B1" transform="translate(0,0)"/>
<path d="" fill="#1170AF" transform="translate(0,0)"/>
<path d="" fill="#0F6FB0" transform="translate(0,0)"/>
<path d="" fill="#1370B1" transform="translate(0,0)"/>
<path d="" fill="#1173B4" transform="translate(0,0)"/>
<path d="" fill="#1174B3" transform="translate(0,0)"/>
<path d="" fill="#1273B2" transform="translate(0,0)"/>
<path d="" fill="#1172B4" transform="translate(0,0)"/>
<path d="" fill="#1274B1" transform="translate(0,0)"/>
<path d="" fill="#1170AE" transform="translate(0,0)"/>
<path d="" fill="#1071B1" transform="translate(0,0)"/>
<path d="" fill="#1373B4" transform="translate(0,0)"/>
<path d="" fill="#1171B2" transform="translate(0,0)"/>
<path d="" fill="#0E71B5" transform="translate(0,0)"/>
<path d="" fill="#1173B5" transform="translate(0,0)"/>
<path d="" fill="#1076B4" transform="translate(0,0)"/>
<path d="" fill="#1176B3" transform="translate(0,0)"/>
<path d="" fill="#157BC0" transform="translate(0,0)"/>
<path d="" fill="#127BBF" transform="translate(0,0)"/>
<path d="" fill="#1372B1" transform="translate(0,0)"/>
<path d="" fill="#147DC0" transform="translate(0,0)"/>
<path d="" fill="#147ABD" transform="translate(0,0)"/>
<path d="" fill="#137CBE" transform="translate(0,0)"/>
<path d="" fill="#137BBD" transform="translate(0,0)"/>
<path d="" fill="#137BBD" transform="translate(0,0)"/>
<path d="" fill="#117ABB" transform="translate(0,0)"/>
<path d="" fill="#0F7BBF" transform="translate(0,0)"/>
<path d="" fill="#107CC0" transform="translate(0,0)"/>
<path d="" fill="#1074B3" transform="translate(0,0)"/>
<path d="" fill="#107BBD" transform="translate(0,0)"/>
<path d="" fill="#1177B9" transform="translate(0,0)"/>
<path d="" fill="#0F73B4" transform="translate(0,0)"/>
<path d="" fill="#1275B5" transform="translate(0,0)"/>
<path d="" fill="#1075B4" transform="translate(0,0)"/>
<path d="" fill="#1074B5" transform="translate(0,0)"/>
<path d="" fill="#0F75B4" transform="translate(0,0)"/>
<path d="" fill="#0F76B6" transform="translate(0,0)"/>
<path d="" fill="#1279B9" transform="translate(0,0)"/>
<path d="" fill="#0E7ABB" transform="translate(0,0)"/>
<path d="" fill="#0E73B4" transform="translate(0,0)"/>
<path d="" fill="#0E73B4" transform="translate(0,0)"/>
<path d="" fill="#0E75B6" transform="translate(0,0)"/>
<path d="" fill="#0E79BD" transform="translate(0,0)"/>
<path d="" fill="#1177B6" transform="translate(0,0)"/>
<path d="" fill="#0F75B5" transform="translate(0,0)"/>
<path d="" fill="#0F78BC" transform="translate(0,0)"/>
<path d="" fill="#127ABD" transform="translate(0,0)"/>
<path d="" fill="#117CC0" transform="translate(0,0)"/>
<path d="" fill="#0E72B4" transform="translate(0,0)"/>
<path d="" fill="#107ABD" transform="translate(0,0)"/>
<path d="" fill="#0E7BC0" transform="translate(0,0)"/>
<path d="" fill="#1078BE" transform="translate(0,0)"/>
<path d="" fill="#0F7BC0" transform="translate(0,0)"/>
<path d="" fill="#0E7ABD" transform="translate(0,0)"/>
<path d="" fill="#0C7BC0" transform="translate(0,0)"/>
<path d="" fill="#0F7AC0" transform="translate(0,0)"/>
<path d="" fill="#107CBF" transform="translate(0,0)"/>
<path d="" fill="#127BC1" transform="translate(0,0)"/>
<path d="" fill="#107CBF" transform="translate(0,0)"/>
<path d="" fill="#137BBD" transform="translate(0,0)"/>
<path d="" fill="#0F7AC1" transform="translate(0,0)"/>
<path d="" fill="#0E7ABF" transform="translate(0,0)"/>
<path d="" fill="#1079C0" transform="translate(0,0)"/>
<path d="" fill="#107DC3" transform="translate(0,0)"/>
<path d="" fill="#0F7BC1" transform="translate(0,0)"/>
<path d="" fill="#117BC1" transform="translate(0,0)"/>
<path d="" fill="#0F7BC1" transform="translate(0,0)"/>
<path d="" fill="#0F7DC1" transform="translate(0,0)"/>
<path d="" fill="#0E7CC1" transform="translate(0,0)"/>
<path d="" fill="#0F7CC1" transform="translate(0,0)"/>
<path d="" fill="#0F7BC1" transform="translate(0,0)"/>
<path d="" fill="#0E7AC1" transform="translate(0,0)"/>
<path d="" fill="#0F7AC1" transform="translate(0,0)"/>
<path d="" fill="#107CC2" transform="translate(0,0)"/>
<path d="" fill="#137CC2" transform="translate(0,0)"/>
<path d="" fill="#127DC3" transform="translate(0,0)"/>
<path d="" fill="#127BC2" transform="translate(0,0)"/>
<path d="" fill="#107EC3" transform="translate(0,0)"/>
<path d="" fill="#127CC1" transform="translate(0,0)"/>
<path d="" fill="#127CC2" transform="translate(0,0)"/>
<path d="" fill="#107AC0" transform="translate(0,0)"/>
<path d="" fill="#107CC3" transform="translate(0,0)"/>
<path d="" fill="#117CC0" transform="translate(0,0)"/>
<path d="" fill="#127CC1" transform="translate(0,0)"/>
<path d="" fill="#107AC0" transform="translate(0,0)"/>
<path d="" fill="#117CC1" transform="translate(0,0)"/>
<path d="" fill="#107EC2" transform="translate(0,0)"/>
<path d="" fill="#117AC1" transform="translate(0,0)"/>
<path d="" fill="#1074B4" transform="translate(0,0)"/>
<path d="" fill="#1176B6" transform="translate(0,0)"/>
<path d="" fill="#106FAE" transform="translate(0,0)"/>
<path d="" fill="#0E74B5" transform="translate(0,0)"/>
<path d="" fill="#1173B3" transform="translate(0,0)"/>
<path d="" fill="#1175B4" transform="translate(0,0)"/>
<path d="" fill="#0D72B4" transform="translate(0,0)"/>
<path d="" fill="#0F72B1" transform="translate(0,0)"/>
<path d="" fill="#0D70AF" transform="translate(0,0)"/>
<path d="" fill="#0F73B6" transform="translate(0,0)"/>
<path d="" fill="#0E70AE" transform="translate(0,0)"/>
<path d="" fill="#0D71AE" transform="translate(0,0)"/>
<path d="" fill="#0C6FB0" transform="translate(0,0)"/>
<path d="" fill="#0F70AF" transform="translate(0,0)"/>
<path d="" fill="#0D73AF" transform="translate(0,0)"/>
<path d="" fill="#1070AD" transform="translate(0,0)"/>
<path d="" fill="#1071B0" transform="translate(0,0)"/>
<path d="" fill="#0A70AF" transform="translate(0,0)"/>
<path d="" fill="#0C76B7" transform="translate(0,0)"/>
<path d="" fill="#0D72B1" transform="translate(0,0)"/>
<path d="" fill="#0D71B0" transform="translate(0,0)"/>
<path d="" fill="#0D71B1" transform="translate(0,0)"/>
<path d="" fill="#0C6EB0" transform="translate(0,0)"/>
<path d="" fill="#0E74B7" transform="translate(0,0)"/>
<path d="" fill="#0B73B5" transform="translate(0,0)"/>
<path d="" fill="#0E72B4" transform="translate(0,0)"/>
<path d="" fill="#1072B2" transform="translate(0,0)"/>
<path d="" fill="#0F6FAF" transform="translate(0,0)"/>
<path d="" fill="#1176B5" transform="translate(0,0)"/>
<path d="" fill="#0D74B6" transform="translate(0,0)"/>
<path d="" fill="#0B72B3" transform="translate(0,0)"/>
<path d="" fill="#0D70B2" transform="translate(0,0)"/>
<path d="" fill="#0E6FAD" transform="translate(0,0)"/>
<path d="" fill="#0C70B1" transform="translate(0,0)"/>
<path d="" fill="#0C6FB0" transform="translate(0,0)"/>
<path d="" fill="#0B72B4" transform="translate(0,0)"/>
<path d="" fill="#0D6FB1" transform="translate(0,0)"/>
<path d="" fill="#0B6DAF" transform="translate(0,0)"/>
<path d="" fill="#0E74B5" transform="translate(0,0)"/>
<path d="" fill="#0C72B0" transform="translate(0,0)"/>
<path d="" fill="#0B70B1" transform="translate(0,0)"/>
<path d="" fill="#0F6FAF" transform="translate(0,0)"/>
<path d="" fill="#0C70B0" transform="translate(0,0)"/>
<path d="" fill="#0D6DAE" transform="translate(0,0)"/>
<path d="" fill="#0E70AF" transform="translate(0,0)"/>
<path d="" fill="#0E73B5" transform="translate(0,0)"/>
<path d="" fill="#1073B4" transform="translate(0,0)"/>
<path d="" fill="#0E75B5" transform="translate(0,0)"/>
<path d="" fill="#0B6FB0" transform="translate(0,0)"/>
<path d="" fill="#0B70B2" transform="translate(0,0)"/>
<path d="" fill="#0C6EB0" transform="translate(0,0)"/>
<path d="" fill="#0C70B2" transform="translate(0,0)"/>
<path d="" fill="#0C70B2" transform="translate(0,0)"/>
<path d="" fill="#0C70B4" transform="translate(0,0)"/>
<path d="" fill="#0D72B3" transform="translate(0,0)"/>
<path d="" fill="#117ABB" transform="translate(0,0)"/>
<path d="" fill="#0E73B3" transform="translate(0,0)"/>
<path d="" fill="#1071B0" transform="translate(0,0)"/>
<path d="" fill="#0C71B3" transform="translate(0,0)"/>
<path d="" fill="#0C74B5" transform="translate(0,0)"/>
<path d="" fill="#0B71B4" transform="translate(0,0)"/>
<path d="" fill="#1173B3" transform="translate(0,0)"/>
<path d="" fill="#0D72B5" transform="translate(0,0)"/>
<path d="" fill="#1074B6" transform="translate(0,0)"/>
<path d="" fill="#1071B2" transform="translate(0,0)"/>
<path d="" fill="#0F74B5" transform="translate(0,0)"/>
<path d="" fill="#1175B6" transform="translate(0,0)"/>
<path d="" fill="#1275B5" transform="translate(0,0)"/>
<path d="" fill="#1073B6" transform="translate(0,0)"/>
<path d="" fill="#1276B7" transform="translate(0,0)"/>
<path d="" fill="#1074B6" transform="translate(0,0)"/>
<path d="" fill="#1073B3" transform="translate(0,0)"/>
</svg>
